<svg version="1.0" xmlns="http://www.w3.org/2000/svg"
 width="280.000000pt" height="280.000000pt" viewBox="0 0 280.000000 280.000000"
 preserveAspectRatio="xMidYMid meet">

<g transform="translate(0.000000,280.000000) scale(0.100000,-0.100000)"
fill="#000000" stroke="none">
<path d="M130 2295 l0 -385 885 0 885 0 0 -890 0 -890 385 0 385 0 0 1275 0
1275 -1270 0 -1270 0 0 -385z"/>
<path d="M130 1405 l0 -385 440 0 440 0 2 -442 3 -443 385 0 385 0 3 828 2
827 -830 0 -830 0 0 -385z"/>
<path d="M130 520 l0 -390 385 0 385 0 -2 387 -3 388 -382 3 -383 2 0 -390z"/>
</g>
</svg>
